<?xml version='1.0' encoding='utf-8'?>
<svg xmlns="http://www.w3.org/2000/svg" width="1814" height="571" viewBox="0 0 1814 571">
<path d="M100,400 C200,250 400,250 500,400 C600,550 800,550 900,400 C1000,250 1200,250 1300,400 C1400,550 1600,550 1700,400 L1700,600 L100,600 Z" fill="black" opacity="0.35" transform="translate(0, -50)" /><path d="M 1016,540 L 1015,541 L 1012,541 L 1011,542 L 1010,542 L 1009,543 L 1008,543 L 1007,544 L 1005,544 L 998,551 L 998,556 L 1000,558 L 1001,558 L 1004,561 L 1004,562 L 1005,562 L 1006,563 L 1007,563 L 1008,564 L 1014,564 L 1015,565 L 1021,565 L 1022,564 L 1027,564 L 1028,563 L 1030,563 L 1031,562 L 1032,562 L 1034,560 L 1034,559 L 1037,556 L 1037,554 L 1038,553 L 1038,552 L 1035,549 L 1035,548 L 1034,547 L 1034,546 L 1033,545 L 1032,545 L 1031,544 L 1029,544 L 1027,542 L 1026,542 L 1025,541 L 1022,541 L 1021,540 Z" fill="#BDE318" />
<path d="M 880,540 L 879,541 L 877,541 L 874,544 L 872,544 L 871,545 L 870,545 L 870,546 L 869,547 L 869,549 L 868,550 L 868,551 L 867,552 L 867,553 L 868,554 L 868,557 L 869,558 L 869,559 L 873,563 L 875,563 L 876,564 L 880,564 L 881,565 L 887,565 L 888,566 L 967,566 L 968,565 L 971,565 L 972,564 L 976,564 L 977,563 L 978,563 L 979,562 L 979,561 L 980,560 L 982,560 L 984,558 L 984,557 L 985,556 L 985,550 L 984,549 L 984,548 L 981,545 L 980,545 L 979,544 L 978,544 L 977,543 L 976,543 L 974,541 L 971,541 L 970,540 Z" fill="#BDE318" />
<path d="M 831,540 L 830,541 L 826,541 L 825,542 L 824,542 L 823,543 L 822,543 L 821,544 L 820,544 L 818,546 L 817,546 L 815,548 L 815,549 L 814,550 L 814,557 L 816,559 L 817,559 L 821,563 L 823,563 L 824,564 L 831,564 L 832,565 L 833,565 L 834,564 L 842,564 L 843,563 L 845,563 L 846,562 L 847,562 L 851,558 L 851,554 L 852,553 L 852,552 L 851,551 L 851,548 L 848,545 L 847,545 L 846,544 L 845,544 L 843,542 L 842,542 L 841,541 L 836,541 L 835,540 Z" fill="#BDE318" />
<path d="M 145,6 L 144,7 L 123,7 L 122,8 L 114,8 L 113,9 L 107,9 L 106,10 L 98,10 L 97,11 L 93,11 L 92,12 L 90,12 L 89,13 L 88,13 L 87,14 L 85,14 L 84,15 L 81,15 L 80,16 L 78,16 L 77,17 L 76,17 L 74,19 L 73,19 L 72,20 L 70,20 L 69,21 L 68,21 L 65,24 L 63,24 L 62,25 L 61,25 L 60,26 L 60,27 L 58,29 L 57,29 L 56,30 L 55,30 L 52,33 L 52,34 L 51,35 L 51,36 L 50,37 L 48,37 L 46,39 L 46,40 L 45,41 L 45,44 L 44,45 L 44,46 L 43,47 L 42,47 L 41,48 L 41,49 L 40,50 L 40,52 L 39,53 L 39,60 L 38,61 L 38,191 L 37,192 L 37,288 L 36,289 L 36,330 L 35,331 L 35,340 L 34,341 L 34,438 L 33,439 L 33,495 L 34,496 L 34,501 L 35,502 L 35,505 L 36,506 L 36,507 L 37,508 L 37,512 L 38,513 L 38,519 L 39,520 L 39,523 L 42,526 L 43,526 L 45,528 L 45,530 L 46,531 L 46,532 L 47,532 L 49,534 L 50,534 L 52,536 L 52,537 L 55,540 L 56,540 L 57,541 L 58,541 L 61,544 L 62,544 L 63,545 L 64,545 L 65,546 L 67,546 L 69,548 L 70,548 L 71,549 L 72,549 L 73,550 L 75,550 L 76,551 L 79,551 L 82,554 L 85,554 L 86,555 L 93,555 L 94,556 L 98,556 L 99,557 L 101,557 L 102,558 L 105,558 L 106,559 L 120,559 L 121,560 L 684,560 L 685,559 L 702,559 L 703,558 L 707,558 L 708,557 L 710,557 L 711,556 L 717,556 L 718,555 L 733,555 L 734,554 L 738,554 L 739,553 L 740,553 L 741,552 L 743,552 L 744,551 L 752,551 L 753,550 L 759,550 L 760,549 L 762,549 L 763,548 L 764,548 L 765,547 L 767,547 L 768,546 L 775,546 L 776,545 L 779,545 L 780,544 L 781,544 L 783,542 L 788,542 L 789,541 L 794,541 L 795,540 L 796,540 L 797,539 L 799,539 L 800,538 L 801,538 L 802,537 L 811,537 L 812,536 L 815,536 L 816,535 L 817,535 L 818,534 L 820,534 L 821,533 L 828,533 L 829,532 L 838,532 L 839,531 L 842,531 L 843,530 L 844,530 L 845,529 L 848,529 L 849,528 L 865,528 L 866,527 L 878,527 L 879,526 L 885,526 L 886,525 L 890,525 L 891,524 L 945,524 L 946,525 L 952,525 L 953,526 L 958,526 L 959,527 L 970,527 L 971,528 L 988,528 L 989,529 L 991,529 L 992,530 L 994,530 L 995,531 L 998,531 L 999,532 L 1007,532 L 1008,533 L 1016,533 L 1017,534 L 1018,534 L 1019,535 L 1020,535 L 1021,536 L 1025,536 L 1026,537 L 1036,537 L 1037,538 L 1038,538 L 1040,540 L 1042,540 L 1043,541 L 1049,541 L 1050,542 L 1052,542 L 1054,544 L 1056,544 L 1058,546 L 1060,546 L 1061,547 L 1064,547 L 1066,549 L 1068,549 L 1069,550 L 1072,550 L 1073,551 L 1081,551 L 1082,552 L 1084,552 L 1085,553 L 1086,553 L 1087,554 L 1090,554 L 1091,555 L 1098,555 L 1099,556 L 1107,556 L 1108,557 L 1111,557 L 1112,558 L 1116,558 L 1117,559 L 1123,559 L 1124,560 L 1144,560 L 1145,561 L 1171,561 L 1172,562 L 1183,562 L 1184,563 L 1264,563 L 1265,562 L 1272,562 L 1273,563 L 1278,563 L 1279,562 L 1286,562 L 1287,563 L 1316,563 L 1317,562 L 1319,562 L 1320,563 L 1340,563 L 1341,562 L 1344,562 L 1345,561 L 1348,561 L 1349,562 L 1356,562 L 1357,563 L 1644,563 L 1645,562 L 1646,562 L 1648,560 L 1691,560 L 1692,559 L 1717,559 L 1718,558 L 1721,558 L 1722,557 L 1724,557 L 1725,556 L 1726,556 L 1727,555 L 1733,555 L 1734,554 L 1737,554 L 1740,551 L 1742,551 L 1743,550 L 1746,550 L 1747,549 L 1748,549 L 1749,548 L 1750,548 L 1752,546 L 1753,546 L 1754,545 L 1755,545 L 1756,544 L 1757,544 L 1760,541 L 1761,541 L 1762,540 L 1763,540 L 1767,536 L 1767,535 L 1769,533 L 1770,533 L 1773,530 L 1773,529 L 1774,528 L 1774,527 L 1775,526 L 1775,525 L 1779,521 L 1779,518 L 1780,517 L 1780,507 L 1781,506 L 1781,424 L 1780,423 L 1780,120 L 1779,119 L 1779,72 L 1778,71 L 1778,63 L 1777,62 L 1777,60 L 1776,59 L 1776,58 L 1775,57 L 1775,56 L 1774,55 L 1774,52 L 1773,51 L 1773,47 L 1772,46 L 1772,45 L 1769,42 L 1768,42 L 1767,41 L 1767,40 L 1766,39 L 1766,38 L 1762,34 L 1761,34 L 1756,29 L 1754,29 L 1750,25 L 1748,25 L 1747,24 L 1746,24 L 1743,21 L 1742,21 L 1741,20 L 1738,20 L 1737,19 L 1735,19 L 1734,18 L 1733,18 L 1731,16 L 1728,16 L 1727,15 L 1722,15 L 1721,14 L 1718,14 L 1717,13 L 1715,13 L 1714,12 L 1709,12 L 1708,11 L 1697,11 L 1696,10 L 1351,10 L 1350,9 L 1341,9 L 1340,10 L 1338,10 L 1337,9 L 1254,9 L 1253,10 L 1208,10 L 1207,11 L 1193,11 L 1192,12 L 1185,12 L 1184,13 L 1176,13 L 1175,14 L 1166,14 L 1165,15 L 1149,15 L 1148,16 L 1142,16 L 1141,17 L 1135,17 L 1134,18 L 1131,18 L 1130,19 L 1121,19 L 1120,20 L 1112,20 L 1111,21 L 1108,21 L 1107,22 L 1103,22 L 1102,23 L 1096,23 L 1095,24 L 1086,24 L 1085,25 L 1081,25 L 1080,26 L 1078,26 L 1077,27 L 1076,27 L 1075,28 L 1066,28 L 1065,29 L 1059,29 L 1058,30 L 1055,30 L 1054,31 L 1053,31 L 1052,32 L 1048,32 L 1047,33 L 1041,33 L 1040,34 L 1037,34 L 1036,35 L 1033,35 L 1032,36 L 1031,36 L 1030,37 L 1023,37 L 1022,38 L 1018,38 L 1017,39 L 1015,39 L 1014,40 L 1011,40 L 1010,41 L 1006,41 L 1005,42 L 998,42 L 997,43 L 991,43 L 990,44 L 988,44 L 987,45 L 983,45 L 982,46 L 971,46 L 970,47 L 956,47 L 955,48 L 942,48 L 941,49 L 928,49 L 927,50 L 913,50 L 912,49 L 897,49 L 896,48 L 884,48 L 883,47 L 867,47 L 866,46 L 856,46 L 855,45 L 852,45 L 851,44 L 847,44 L 846,43 L 842,43 L 841,42 L 832,42 L 831,41 L 827,41 L 826,40 L 825,40 L 824,39 L 821,39 L 820,38 L 815,38 L 814,37 L 808,37 L 807,36 L 805,36 L 804,35 L 803,35 L 802,34 L 797,34 L 796,33 L 790,33 L 789,32 L 786,32 L 785,31 L 783,31 L 782,30 L 779,30 L 778,29 L 773,29 L 772,28 L 763,28 L 762,27 L 761,27 L 760,26 L 757,26 L 756,25 L 752,25 L 751,24 L 743,24 L 742,23 L 737,23 L 736,22 L 733,22 L 732,21 L 728,21 L 727,20 L 721,20 L 720,19 L 707,19 L 706,18 L 704,18 L 703,17 L 698,17 L 697,16 L 691,16 L 690,15 L 676,15 L 675,14 L 665,14 L 664,13 L 660,13 L 659,12 L 651,12 L 650,11 L 635,11 L 634,10 L 609,10 L 608,9 L 596,9 L 595,8 L 564,8 L 563,7 L 248,7 L 247,6 Z" fill="#BDE318" />
</svg>